<svg width="40" height="40" viewBox="0 0 40 40" fill="none" xmlns="http://www.w3.org/2000/svg">
<g clip-path="url(#clip0_528_1102)">
<path d="M33.0438 3.29701C30.7925 2.39495 28.3116 2.23746 25.9644 2.84761C23.6172 3.45775 21.527 4.80346 20 6.68763C18.473 4.80346 16.3829 3.45775 14.0356 2.84761C11.6884 2.23746 9.2075 2.39495 6.95627 3.29701C4.89024 4.10115 3.11803 5.5153 1.8754 7.35133C0.632774 9.18736 -0.0213604 11.3582 1.95706e-05 13.5751C-2.05157e-07 15.6025 0.416949 17.6083 1.22495 19.4677C2.03296 21.3272 3.21476 23.0005 4.69689 24.3839L17.8363 36.647C18.4235 37.1951 19.1968 37.4999 20 37.4999C20.8032 37.4999 21.5766 37.1951 22.1638 36.647L35.3031 24.3839C36.7853 23.0005 37.9671 21.3272 38.7751 19.4677C39.5831 17.6083 40 15.6025 40 13.5751C40.0214 11.3582 39.3673 9.18736 38.1246 7.35133C36.882 5.5153 35.1098 4.10115 33.0438 3.29701Z" fill="#DFDFDF"/>
<path d="M31.25 6.25L30.9519 7.74063C30.8551 8.22463 30.6172 8.66916 30.2682 9.01818C29.9192 9.3672 29.4746 9.60509 28.9906 9.70187L27.5 10L28.9906 10.2981C29.4746 10.3949 29.9192 10.6328 30.2682 10.9818C30.6172 11.3308 30.8551 11.7754 30.9519 12.2594L31.25 13.75L31.5481 12.2594C31.6449 11.7754 31.8828 11.3308 32.2318 10.9818C32.5808 10.6328 33.0254 10.3949 33.5094 10.2981L35 10L33.5094 9.70187C33.0254 9.60509 32.5808 9.3672 32.2318 9.01818C31.8828 8.66916 31.6449 8.22463 31.5481 7.74063L31.25 6.25Z" fill="#C4C4C4"/>
</g>
<defs>
<clipPath id="clip0_528_1102">
<rect width="40" height="40" fill="white"/>
</clipPath>
</defs>
</svg>
